<?xml version="1.0"?>
<svg xmlns="http://www.w3.org/2000/svg" xmlns:xlink="http://www.w3.org/1999/xlink" xmlns:svgjs="http://svgjs.com/svgjs" version="1.1" width="512" height="512" x="0" y="0" viewBox="0 0 488 488" style="enable-background:new 0 0 512 512" xml:space="preserve" class=""><g>
<g xmlns="http://www.w3.org/2000/svg">
	<g>
		<path d="M468,96h-36.688l18.344-18.344c1.5-1.5,2.344-3.534,2.344-5.656V56h8c4.418,0,8-3.582,8-8V8c0-4.418-3.582-8-8-8h-32    c-4.418,0-8,3.582-8,8v40c0,4.418,3.582,8,8,8h8v12.688L408.688,96h-41.376l18.344-18.344c1.5-1.5,2.344-3.534,2.344-5.656V56h8    c4.418,0,8-3.582,8-8V8c0-4.418-3.582-8-8-8h-32c-4.418,0-8,3.582-8,8v40c0,4.418,3.582,8,8,8h8v12.688L344.688,96h-41.376    l18.344-18.344c1.5-1.5,2.344-3.534,2.344-5.656V56h8c4.418,0,8-3.582,8-8V8c0-4.418-3.582-8-8-8h-32c-4.418,0-8,3.582-8,8v40    c0,4.418,3.582,8,8,8h8v12.688L280.688,96h-41.376l18.344-18.344c1.5-1.5,2.344-3.534,2.344-5.656V56h8c4.418,0,8-3.582,8-8V8    c0-4.418-3.582-8-8-8h-32c-4.418,0-8,3.582-8,8v40c0,4.418,3.582,8,8,8h8v12.688L216.688,96h-41.376l18.344-18.344    c1.5-1.5,2.344-3.534,2.344-5.656V56h8c4.418,0,8-3.582,8-8V8c0-4.418-3.582-8-8-8h-32c-4.418,0-8,3.582-8,8v40    c0,4.418,3.582,8,8,8h8v12.688L152.688,96h-41.376l18.344-18.344c1.5-1.5,2.344-3.534,2.344-5.656V56h8c4.418,0,8-3.582,8-8V8    c0-4.418-3.582-8-8-8h-32c-4.418,0-8,3.582-8,8v40c0,4.418,3.582,8,8,8h8v12.688L88.688,96H47.312l18.344-18.344    C67.156,76.156,68,74.122,68,72V56h8c4.418,0,8-3.582,8-8V8c0-4.418-3.582-8-8-8H44c-4.418,0-8,3.582-8,8v40c0,4.418,3.582,8,8,8    h8v12.688L24.688,96H20c-4.418,0-8,3.582-8,8v312c0,4.418,3.582,8,8,8h8v16h-8c-4.418,0-8,3.582-8,8v32c0,4.418,3.582,8,8,8h32    c4.418,0,8-3.582,8-8v-32c0-4.418-3.582-8-8-8h-8v-16h48v16h-8c-4.418,0-8,3.582-8,8v32c0,4.418,3.582,8,8,8h32    c4.418,0,8-3.582,8-8v-32c0-4.418-3.582-8-8-8h-8v-16h48v16h-8c-4.418,0-8,3.582-8,8v32c0,4.418,3.582,8,8,8h32    c4.418,0,8-3.582,8-8v-32c0-4.418-3.582-8-8-8h-8v-16h48v16h-8c-4.418,0-8,3.582-8,8v32c0,4.418,3.582,8,8,8h32    c4.418,0,8-3.582,8-8v-32c0-4.418-3.582-8-8-8h-8v-16h48v16h-8c-4.418,0-8,3.582-8,8v32c0,4.418,3.582,8,8,8h32    c4.418,0,8-3.582,8-8v-32c0-4.418-3.582-8-8-8h-8v-16h48v16h-8c-4.418,0-8,3.582-8,8v32c0,4.418,3.582,8,8,8h32    c4.418,0,8-3.582,8-8v-32c0-4.418-3.582-8-8-8h-8v-16h48v16h-8c-4.418,0-8,3.582-8,8v32c0,4.418,3.582,8,8,8h32    c4.418,0,8-3.582,8-8v-32c0-4.418-3.582-8-8-8h-8v-16h40c4.418,0,8-3.582,8-8V104C476,99.582,472.418,96,468,96z M436,16h16v24    h-16V16z M372,16h16v24h-16V16z M308,16h16v24h-16V16z M244,16h16v24h-16V16z M180,16h16v24h-16V16z M116,16h16v24h-16V16z M52,16    h16v24H52V16z M44,472H28v-16h16V472z M108,472H92v-16h16V472z M172,472h-16v-16h16V472z M236,472h-16v-16h16V472z M300,472h-16    v-16h16V472z M364,472h-16v-16h16V472z M428,472h-16v-16h16V472z M460,408H28V112h432V408z" fill="#ffffff" data-original="#000000" style="" class=""/>
	</g>
</g>
<g xmlns="http://www.w3.org/2000/svg">
	<g>
		<path d="M436,128H52c-4.418,0-8,3.582-8,8v248c0,4.418,3.582,8,8,8h384c4.418,0,8-3.582,8-8V136C444,131.582,440.418,128,436,128z     M428,376H60V144h368V376z" fill="#ffffff" data-original="#000000" style="" class=""/>
	</g>
</g>
<g xmlns="http://www.w3.org/2000/svg">
	<g>
		
			<rect x="278.476" y="291.988" transform="matrix(0.7071 -0.7071 0.7071 0.7071 -109.0202 336.7773)" width="147.081" height="16" fill="#ffffff" data-original="#000000" style="" class=""/>
	</g>
</g>
<g xmlns="http://www.w3.org/2000/svg">
	<g>
		<rect x="336.4" y="316.005" transform="matrix(0.7071 -0.7071 0.7071 0.7071 -118.9791 360.7683)" width="79.192" height="16" fill="#ffffff" data-original="#000000" style="" class=""/>
	</g>
</g>
<g xmlns="http://www.w3.org/2000/svg">
</g>
<g xmlns="http://www.w3.org/2000/svg">
</g>
<g xmlns="http://www.w3.org/2000/svg">
</g>
<g xmlns="http://www.w3.org/2000/svg">
</g>
<g xmlns="http://www.w3.org/2000/svg">
</g>
<g xmlns="http://www.w3.org/2000/svg">
</g>
<g xmlns="http://www.w3.org/2000/svg">
</g>
<g xmlns="http://www.w3.org/2000/svg">
</g>
<g xmlns="http://www.w3.org/2000/svg">
</g>
<g xmlns="http://www.w3.org/2000/svg">
</g>
<g xmlns="http://www.w3.org/2000/svg">
</g>
<g xmlns="http://www.w3.org/2000/svg">
</g>
<g xmlns="http://www.w3.org/2000/svg">
</g>
<g xmlns="http://www.w3.org/2000/svg">
</g>
<g xmlns="http://www.w3.org/2000/svg">
</g>
</g></svg>
